<?xml version="1.0" encoding="utf-8" ?>
<svg xmlns="http://www.w3.org/2000/svg" xmlns:xlink="http://www.w3.org/1999/xlink" width="490" height="190">
	<defs>
		<clipPath id="clip_0">
			<rect x="-956" y="-106" width="2400" height="5474" clip-rule="evenodd"/>
		</clipPath>
	</defs>
	<g clip-path="url(#clip_0)">
		<text fill="rgb(25,25,25)" stroke="none" transform="matrix(2 0 0 2 0 162)" font-size="12" font-weight="bold" font-family="Work Sans" x="0" y="10.96">
				A Better Experience
		</text>
	</g>
	<defs>
		<clipPath id="clip_1">
			<rect x="-956" y="-106" width="2400" height="5474" clip-rule="evenodd"/>
		</clipPath>
	</defs>
	<g clip-path="url(#clip_1)">
		<path fill="rgb(255,217,46)" stroke="none" transform="matrix(2 0 0 2 414.444 83.4182)" d="M0 6.76364L6.77778 6.76364L6.77778 0L0 0L0 6.76364Z"/>
	</g>
	<defs>
		<clipPath id="clip_2">
			<rect x="-956" y="-106" width="2400" height="5474" clip-rule="evenodd"/>
		</clipPath>
	</defs>
	<g clip-path="url(#clip_2)">
		<path fill="rgb(255,255,255)" stroke="none" transform="matrix(2 0 0 2 407.667 34.2534)" d="M1.69429 3.10935C0.902279 3.10935 0.273009 2.48134 0.273009 1.69091C0.273009 0.900167 0.902279 0.272151 1.69429 0.272151C2.49069 0.272151 3.11557 0.900167 3.11557 1.69091C3.11557 2.48134 2.49069 3.10935 1.69429 3.10935M1.69429 0C0.76122 0 0 0.759702 0 1.69091C0 2.6218 0.76122 3.38182 1.69429 3.38182C2.62735 3.38182 3.38889 2.6218 3.38889 1.69091C3.38889 0.759702 2.62735 0 1.69429 0"/>
	</g>
	<defs>
		<clipPath id="clip_3">
			<rect x="-956" y="-106" width="2400" height="5474" clip-rule="evenodd"/>
		</clipPath>
	</defs>
	<g clip-path="url(#clip_3)">
		<path fill="rgb(255,255,255)" stroke="none" transform="matrix(2 0 0 2 409.926 36.5079)" d="M0.648608 0.163403C0.776417 0.163403 0.901182 0.210788 0.983345 0.292395L1.12963 0.184463C1.01399 0.0712654 0.828149 0 0.648608 0C0.289309 0 0 0.250275 0 0.56373C0 0.877186 0.289309 1.12727 0.648608 1.12727C0.828149 1.12727 1.01399 1.05356 1.12963 0.942998L0.983345 0.832433C0.901182 0.914041 0.776417 0.961425 0.648608 0.961425C0.392773 0.961425 0.191713 0.787681 0.191713 0.56373C0.191713 0.337148 0.392773 0.163403 0.648608 0.163403"/>
	</g>
	<defs>
		<clipPath id="clip_4">
			<rect x="-956" y="-106" width="2400" height="5474" clip-rule="evenodd"/>
		</clipPath>
	</defs>
	<g clip-path="url(#clip_4)">
		<path fill="rgb(0,0,0)" stroke="none" transform="matrix(2 0 0 2 204.363 34.6001)" d="M19.5504 13.3573L16.3851 21.7679L13.4681 13.1719L8.81309 0L0 0L12.2267 29.9925L6.51669 43.2267L14.8334 43.2267L33.5151 0L25.1365 0L19.5504 13.3573Z"/>
	</g>
	<defs>
		<clipPath id="clip_5">
			<rect x="62" y="34.605713" width="64.619736" height="64.155052" clip-rule="evenodd"/>
		</clipPath>
	</defs>
	<g clip-path="url(#clip_5)">
		<path fill="rgb(0,0,0)" stroke="none" transform="matrix(2 0 0 2 61.9999 34.6057)" d="M16.1842 25.0421C11.1601 25.0421 7.21758 21.055 7.21758 16.0386C7.21758 11.0229 11.1601 7.03571 16.1842 7.03571C21.0177 7.03571 25.0239 11.0229 25.0239 16.0386C25.0239 21.055 21.0177 25.0421 16.1842 25.0421M31.0383 0.000286762L31.038 0L25.0647 0L25.0647 2.6081C22.5397 0.958073 19.4994 0.000286762 16.1857 0.000286762C7.02043 0.000286762 0 7.09938 0 16.0386C0 24.9784 7.02043 32.0775 16.1857 32.0775C19.4994 32.0775 22.5397 31.1197 25.0647 29.4694L25.0647 32.0775L31.0374 32.0775L31.0411 32.0744C31.0411 32.0744 32.2786 32.103 32.31 30.8321L32.31 1.28928C32.31 -0.0318306 31.0383 0.000286762 31.0383 0.000286762"/>
	</g>
	<defs>
		<clipPath id="clip_6">
			<rect x="-956" y="-106" width="2400" height="5474" clip-rule="evenodd"/>
		</clipPath>
	</defs>
	<g clip-path="url(#clip_6)">
		<path fill="rgb(0,0,0)" stroke="none" transform="matrix(2 0 0 2 269.852 34.2534)" d="M16.4093 24.6409C11.3153 24.6409 7.31794 20.7176 7.31794 15.7817C7.31794 10.8463 11.3153 6.923 16.4093 6.923C21.31 6.923 25.3722 10.8463 25.3722 15.7817C25.3722 20.7176 21.31 24.6409 16.4093 24.6409M31.4699 0.000282168L31.4696 3.55271e-15L25.4132 3.55271e-15L25.4132 2.56632C22.8534 0.942725 19.7706 0.000282168 16.4107 0.000282168C7.11806 0.000282168 0 6.98564 0 15.7817C0 24.5783 7.11806 31.5636 16.4107 31.5636C19.7706 31.5636 22.8534 30.6212 25.4132 28.9973L25.4132 31.5636L31.4691 31.5636L31.4728 31.5605C31.4728 31.5605 32.7274 31.5887 32.7593 30.3382L32.7593 1.26863C32.7593 -0.0313207 31.4699 0.000282168 31.4699 0.000282168"/>
	</g>
	<defs>
		<clipPath id="clip_7">
			<rect x="-956" y="-106" width="2400" height="5474" clip-rule="evenodd"/>
		</clipPath>
	</defs>
	<g clip-path="url(#clip_7)">
		<path fill="rgb(0,0,0)" stroke="none" transform="matrix(2 0 0 2 132.037 0.435181)" d="M16.4093 41.5125C11.3153 41.5125 7.31794 37.568 7.31794 32.6053C7.31794 27.6431 11.3153 23.6986 16.4093 23.6986C21.31 23.6986 25.3722 27.6431 25.3722 32.6053C25.3722 37.568 21.31 41.5125 16.4093 41.5125M25.4132 0L25.4132 19.3183C22.8534 17.6859 19.7706 16.7384 16.4107 16.7384C7.11806 16.7384 0 23.7616 0 32.6053C0 41.4495 7.11806 48.4727 16.4107 48.4727C19.7706 48.4727 22.8534 47.5252 25.4132 45.8925L25.4132 48.4727L31.4691 48.4727L31.4728 48.4696C31.4728 48.4696 32.7274 48.498 32.7593 47.2406L32.7593 5.34542C32.7593 2.31951 25.4132 0 25.4132 0"/>
	</g>
	<defs>
		<clipPath id="clip_8">
			<rect x="-956" y="-106" width="2400" height="5474" clip-rule="evenodd"/>
		</clipPath>
	</defs>
	<g clip-path="url(#clip_8)">
		<path fill="rgb(0,0,0)" stroke="none" transform="matrix(2 0 0 2 342.148 34.2534)" d="M16.3793 10.4161L9.45228 3.55271e-15L0 3.55271e-15L0 0.189619L11.1354 15.7818L0 31.374L0 31.5636L9.45228 31.5636L16.3796 21.1476L23.3067 31.5636L32.7593 31.5636L32.7593 31.374L21.6239 15.7818L32.7593 0.189619L32.7593 3.55271e-15L23.3067 3.55271e-15L16.3793 10.4161Z"/>
	</g>
</svg>
